<svg width="20" height="11" viewBox="0 0 20 11" fill="none" xmlns="http://www.w3.org/2000/svg">
<path fill-rule="evenodd" clip-rule="evenodd" d="M0.624063 0.0426835C0.55198 0.0634406 0.409378 0.164021 0.307195 0.266243C-0.0217522 0.59519 -0.0934834 1.05083 0.125776 1.41895C0.1789 1.50815 2.29479 3.65164 4.82778 6.18232C8.4195 9.77076 9.47198 10.801 9.60914 10.8626C9.84001 10.9662 10.1601 10.9662 10.391 10.8626C10.5281 10.801 11.5806 9.77076 15.1723 6.18232C17.7053 3.65164 19.8212 1.50815 19.8743 1.41895C20.0932 1.05138 20.0218 0.595151 19.694 0.267298C19.5817 0.154991 19.4498 0.0660988 19.3576 0.0404945C19.1581 -0.0149359 0.816701 -0.0127469 0.624063 0.0426835Z" fill="#848586"/>
</svg>
