<svg width="163" height="162" viewBox="0 0 163 162" fill="none" xmlns="http://www.w3.org/2000/svg">
<path d="M24.1753 129.364C41.1056 119.795 60.665 114.333 81.5 114.333C102.335 114.333 121.894 119.795 138.825 129.364M106.5 64.3333C106.5 78.1404 95.3071 89.3333 81.5 89.3333C67.6929 89.3333 56.5 78.1404 56.5 64.3333C56.5 50.5262 67.6929 39.3333 81.5 39.3333C95.3071 39.3333 106.5 50.5262 106.5 64.3333ZM156.5 81C156.5 122.421 122.921 156 81.5 156C40.0786 156 6.5 122.421 6.5 81C6.5 39.5786 40.0786 6 81.5 6C122.921 6 156.5 39.5786 156.5 81Z" stroke="#101828" stroke-width="12" stroke-linecap="round" stroke-linejoin="round"/>
</svg>
