<svg width="94" height="94" viewBox="0 0 94 94" fill="none" xmlns="http://www.w3.org/2000/svg">
<path d="M62.6666 27.4167C62.6666 36.0691 55.6524 43.0833 47 43.0833C38.3475 43.0833 31.3333 36.0691 31.3333 27.4167C31.3333 18.7642 38.3475 11.75 47 11.75C55.6524 11.75 62.6666 18.7642 62.6666 27.4167Z" fill="black"/>
<path d="M47 54.8333C31.8582 54.8333 19.5833 67.1082 19.5833 82.25H74.4166C74.4166 67.1082 62.1418 54.8333 47 54.8333Z" fill="black"/>
<path d="M62.6666 27.4167C62.6666 36.0691 55.6524 43.0833 47 43.0833C38.3475 43.0833 31.3333 36.0691 31.3333 27.4167C31.3333 18.7642 38.3475 11.75 47 11.75C55.6524 11.75 62.6666 18.7642 62.6666 27.4167Z" stroke="#848586" stroke-linecap="round" stroke-linejoin="round"/>
<path d="M47 54.8333C31.8582 54.8333 19.5833 67.1082 19.5833 82.25H74.4166C74.4166 67.1082 62.1418 54.8333 47 54.8333Z" stroke="#848586" stroke-linecap="round" stroke-linejoin="round"/>
</svg>
