<svg width="57" height="74" viewBox="0 0 57 74" fill="none" xmlns="http://www.w3.org/2000/svg">
<path d="M44.1667 17.4167C44.1667 26.0691 37.1525 33.0833 28.5 33.0833C19.8475 33.0833 12.8333 26.0691 12.8333 17.4167C12.8333 8.76421 19.8475 1.75 28.5 1.75C37.1525 1.75 44.1667 8.76421 44.1667 17.4167Z" fill="white"/>
<path d="M28.5 44.8333C13.3582 44.8333 1.08334 57.1082 1.08334 72.25H55.9167C55.9167 57.1082 43.6418 44.8333 28.5 44.8333Z" fill="white"/>
<path d="M44.1667 17.4167C44.1667 26.0691 37.1525 33.0833 28.5 33.0833C19.8475 33.0833 12.8333 26.0691 12.8333 17.4167C12.8333 8.76421 19.8475 1.75 28.5 1.75C37.1525 1.75 44.1667 8.76421 44.1667 17.4167Z" stroke="#848586" stroke-width="2" stroke-linecap="round" stroke-linejoin="round"/>
<path d="M28.5 44.8333C13.3582 44.8333 1.08334 57.1082 1.08334 72.25H55.9167C55.9167 57.1082 43.6418 44.8333 28.5 44.8333Z" stroke="#848586" stroke-width="2" stroke-linecap="round" stroke-linejoin="round"/>
</svg>
